<svg width="32" height="32" viewBox="0 0 1379 1218" fill="none" xmlns="http://www.w3.org/2000/svg">
<path d="M1221.55 157.966C1190.82 127.225 1154.34 102.839 1114.18 86.2012C1074.03 69.5635 1030.99 61 987.527 61C944.063 61 901.025 69.5635 860.871 86.2012C820.717 102.839 784.235 127.225 753.508 157.966L689.74 221.735L625.971 157.966C563.906 95.9003 479.726 61.0322 391.952 61.0322C304.178 61.0322 219.999 95.9003 157.934 157.966C95.8681 220.032 61 304.211 61 391.985C61 479.759 95.8681 563.938 157.934 626.003L221.702 689.772L689.74 1157.81L1157.78 689.772L1221.55 626.003C1252.29 595.277 1276.67 558.794 1293.31 518.641C1309.95 478.487 1318.51 435.449 1318.51 391.985C1318.51 348.52 1309.95 305.482 1293.31 265.328C1276.67 225.175 1252.29 188.693 1221.55 157.966Z" stroke="black" stroke-width="120.318" stroke-linecap="round" stroke-linejoin="round"/>
</svg>
