<svg width="1398" height="1538" viewBox="0 0 1398 1538" fill="none" xmlns="http://www.w3.org/2000/svg">
<path d="M70 349.447H209.724H1327.51" stroke="black" stroke-width="139.724" stroke-linecap="round" stroke-linejoin="round"/>
<path d="M1187.79 349.447V1327.51C1187.79 1364.57 1173.07 1400.11 1146.86 1426.31C1120.66 1452.51 1085.12 1467.24 1048.06 1467.24H349.447C312.39 1467.24 276.851 1452.51 250.648 1426.31C224.444 1400.11 209.724 1364.57 209.724 1327.51V349.447M419.309 349.447V209.724C419.309 172.667 434.03 137.127 460.233 110.924C486.436 84.7208 521.975 70 559.032 70H838.479C875.536 70 911.076 84.7208 937.279 110.924C963.482 137.127 978.203 172.667 978.203 209.724V349.447" stroke="black" stroke-width="139.724" stroke-linecap="round" stroke-linejoin="round"/>
<path d="M559.032 698.756V1117.93" stroke="black" stroke-width="139.724" stroke-linecap="round" stroke-linejoin="round"/>
<path d="M838.479 698.756V1117.93" stroke="black" stroke-width="139.724" stroke-linecap="round" stroke-linejoin="round"/>
</svg>
